<svg width="21" height="21" viewBox="0 0 21 21" fill="none" xmlns="http://www.w3.org/2000/svg">
<path d="M18.375 2.625H2.625C1.90013 2.625 1.3125 3.21263 1.3125 3.9375V14.4375C1.3125 15.1624 1.90013 15.75 2.625 15.75H18.375C19.0999 15.75 19.6875 15.1624 19.6875 14.4375V3.9375C19.6875 3.21263 19.0999 2.625 18.375 2.625Z" stroke="#00D15D" stroke-width="1.5" stroke-linejoin="round"/>
<path d="M12.4688 18.375L12.1406 15.75H8.85938L8.53125 18.375H12.4688Z" fill="#00D15D" stroke="#00D15D" stroke-width="1.5" stroke-linecap="round" stroke-linejoin="round"/>
<path d="M15.0938 18.375H5.90625" stroke="#00D15D" stroke-width="1.5" stroke-linecap="round" stroke-linejoin="round"/>
<path d="M1.3125 12.4688V14.4375C1.31347 14.7853 1.45207 15.1186 1.698 15.3645C1.94393 15.6104 2.2772 15.749 2.625 15.75H18.375C18.7228 15.749 19.0561 15.6104 19.302 15.3645C19.5479 15.1186 19.6865 14.7853 19.6875 14.4375V12.4688H1.3125ZM10.5 15.0938C10.3702 15.0938 10.2433 15.0553 10.1354 14.9832C10.0275 14.911 9.94337 14.8085 9.8937 14.6886C9.84403 14.5687 9.83104 14.4368 9.85636 14.3095C9.88168 14.1822 9.94418 14.0652 10.036 13.9735C10.1277 13.8817 10.2447 13.8192 10.372 13.7939C10.4993 13.7685 10.6312 13.7815 10.7511 13.8312C10.871 13.8809 10.9735 13.965 11.0457 14.0729C11.1178 14.1808 11.1562 14.3077 11.1562 14.4375C11.1562 14.6115 11.0871 14.7785 10.964 14.9015C10.841 15.0246 10.674 15.0938 10.5 15.0938Z" fill="#00D15D"/>
<rect x="8" y="13" width="4" height="3" fill="#00D15D"/>
</svg>
