<svg width="21" height="21" viewBox="0 0 21 21" fill="none" xmlns="http://www.w3.org/2000/svg">
<path d="M17.5 7.875H9.625C8.6585 7.875 7.875 8.6585 7.875 9.625V17.5C7.875 18.4665 8.6585 19.25 9.625 19.25H17.5C18.4665 19.25 19.25 18.4665 19.25 17.5V9.625C19.25 8.6585 18.4665 7.875 17.5 7.875Z" stroke="#4776E6" stroke-width="1.5" stroke-linecap="round" stroke-linejoin="round"/>
<path d="M4.375 13.125H3.5C3.03587 13.125 2.59075 12.9406 2.26256 12.6124C1.93437 12.2842 1.75 11.8391 1.75 11.375V3.5C1.75 3.03587 1.93437 2.59075 2.26256 2.26256C2.59075 1.93437 3.03587 1.75 3.5 1.75H11.375C11.8391 1.75 12.2842 1.93437 12.6124 2.26256C12.9406 2.59075 13.125 3.03587 13.125 3.5V4.375" stroke="#4776E6" stroke-width="1.5" stroke-linecap="round" stroke-linejoin="round"/>
</svg>
