<svg width="21" height="21" viewBox="0 0 21 21" fill="none" xmlns="http://www.w3.org/2000/svg">
<path d="M17.625 2.78125H3.375C2.71916 2.78125 2.1875 3.31291 2.1875 3.96875V4.5625C2.1875 5.21834 2.71916 5.75 3.375 5.75H17.625C18.2808 5.75 18.8125 5.21834 18.8125 4.5625V3.96875C18.8125 3.31291 18.2808 2.78125 17.625 2.78125Z" fill="#EA4C2A"/>
<path d="M3.76283 6.9375C3.72111 6.93727 3.67982 6.94584 3.64163 6.96265C3.60345 6.97946 3.56923 7.00412 3.54122 7.03504C3.51321 7.06596 3.49203 7.10243 3.47906 7.14208C3.46609 7.18174 3.46163 7.22368 3.46596 7.26517L4.44231 16.6375C4.44211 16.6402 4.44211 16.643 4.44231 16.6457C4.49332 17.0792 4.70173 17.4789 5.02797 17.7688C5.35421 18.0588 5.77557 18.2189 6.21205 18.2187H14.7877C15.224 18.2187 15.6452 18.0586 15.9713 17.7686C16.2974 17.4786 16.5057 17.079 16.5567 16.6457V16.6379L17.5315 7.26517C17.5359 7.22368 17.5314 7.18174 17.5184 7.14208C17.5055 7.10243 17.4843 7.06596 17.4563 7.03504C17.4283 7.00412 17.3941 6.97946 17.3559 6.96265C17.3177 6.94584 17.2764 6.93727 17.2347 6.9375H3.76283ZM12.9979 13.6428C13.0543 13.6976 13.0993 13.7632 13.1302 13.8355C13.1611 13.9079 13.1773 13.9857 13.1779 14.0644C13.1784 14.1431 13.1633 14.2212 13.1335 14.294C13.1036 14.3668 13.0595 14.4329 13.0039 14.4886C12.9482 14.5442 12.882 14.5882 12.8092 14.6181C12.7364 14.6479 12.6584 14.663 12.5797 14.6624C12.501 14.6618 12.4232 14.6455 12.3508 14.6146C12.2784 14.5837 12.2129 14.5387 12.1581 14.4822L10.5 12.8242L8.84163 14.4822C8.72976 14.5909 8.57963 14.6512 8.42366 14.6501C8.2677 14.649 8.11843 14.5866 8.00812 14.4763C7.89781 14.366 7.83531 14.2168 7.83414 14.0608C7.83296 13.9049 7.8932 13.7547 8.00184 13.6428L9.66026 11.9844L8.00184 10.326C7.8932 10.214 7.83296 10.0639 7.83414 9.90791C7.83531 9.75195 7.89781 9.60271 8.00812 9.49245C8.11843 9.38218 8.2677 9.31975 8.42366 9.31865C8.57963 9.31754 8.72976 9.37785 8.84163 9.48654L10.5 11.1446L12.1581 9.48654C12.27 9.37785 12.4201 9.31754 12.5761 9.31865C12.732 9.31975 12.8813 9.38218 12.9916 9.49245C13.1019 9.60271 13.1644 9.75195 13.1656 9.90791C13.1668 10.0639 13.1065 10.214 12.9979 10.326L11.3395 11.9844L12.9979 13.6428Z" fill="#EA4C2A"/>
</svg>
