<svg width="21" height="21" viewBox="0 0 21 21" fill="none" xmlns="http://www.w3.org/2000/svg">
<path d="M12.1788 12.5357H9.14159V13.9714H13.297C13.7586 13.9714 14.1327 14.3456 14.1327 14.8071C14.1327 15.2687 13.7586 15.6429 13.297 15.6429H9.14159V16.7788C9.14159 17.4532 8.59483 18 7.92035 18C7.24588 18 6.69912 17.4532 6.69912 16.7788V15.6429H5.83571C5.37416 15.6429 5 15.2687 5 14.8071C5 14.3456 5.37416 13.9714 5.83571 13.9714H6.69912V12.5357H6.10357C5.49408 12.5357 5 12.0416 5 11.4321C5 10.8227 5.49409 10.3286 6.10357 10.3286H6.69912V5C6.69912 3.89543 7.59455 3 8.69912 3H12.1788C13.5239 3 14.6637 3.47143 15.5982 4.41429C16.5327 5.34286 17 6.47857 17 7.82143C17 9.15 16.5327 10.2714 15.5982 11.1857C14.6637 12.0857 13.5239 12.5357 12.1788 12.5357ZM9.14159 5.31429V10.3286H12.1788C12.8442 10.3286 13.4035 10.0857 13.8566 9.6C14.3239 9.11429 14.5575 8.52143 14.5575 7.82143C14.5575 7.12143 14.3239 6.52857 13.8566 6.04286C13.4035 5.55714 12.8442 5.31429 12.1788 5.31429H9.14159Z" fill="#00D15D"/>
</svg>
