<svg width="21" height="21" viewBox="0 0 21 21" fill="none" xmlns="http://www.w3.org/2000/svg">
<path d="M5.55009 8L15.4499 8C15.5465 7.99999 15.6413 8.01841 15.7249 8.0534C15.8086 8.0884 15.878 8.13875 15.9263 8.19937C15.9746 8.26 16 8.32878 16 8.39879C16 8.4688 15.9746 8.53758 15.9263 8.59822L10.9764 14.8148C10.9242 14.8718 10.8534 14.9185 10.7703 14.9508C10.6872 14.9831 10.5943 15 10.5 15C10.4057 15 10.3128 14.9831 10.2297 14.9508C10.1466 14.9185 10.0758 14.8718 10.0236 14.8148L5.07368 8.59821C5.02541 8.53758 4.99999 8.4688 5 8.39879C5 8.32878 5.02543 8.26 5.07371 8.19937C5.12199 8.13874 5.19144 8.0884 5.27506 8.0534C5.35868 8.01841 5.45354 7.99999 5.55009 8Z" fill="#4776E6"/>
</svg>
