<svg width="21" height="21" viewBox="0 0 21 21" fill="none" xmlns="http://www.w3.org/2000/svg">
<path d="M15.4499 14L5.55009 14C5.45354 14 5.35868 13.9816 5.27506 13.9466C5.19144 13.9116 5.12199 13.8613 5.07371 13.8006C5.02543 13.74 5 13.6712 5 13.6012C4.99999 13.5312 5.02541 13.4624 5.07368 13.4018L10.0236 7.18519C10.0758 7.12824 10.1466 7.08153 10.2297 7.04922C10.3128 7.01691 10.4057 7 10.5 7C10.5943 7 10.6872 7.01691 10.7703 7.04922C10.8534 7.08153 10.9242 7.12824 10.9764 7.18519L15.9263 13.4018C15.9746 13.4624 16 13.5312 16 13.6012C16 13.6712 15.9746 13.74 15.9263 13.8006C15.878 13.8613 15.8086 13.9116 15.7249 13.9466C15.6413 13.9816 15.5465 14 15.4499 14Z" fill="#4776E6"/>
</svg>
