<svg width="21" height="21" viewBox="0 0 21 21" fill="none" xmlns="http://www.w3.org/2000/svg">
<path d="M17.5057 15.2441C17.5057 17.1609 16.386 18.7144 14.4692 18.7144H7.31185C5.39508 18.7144 4.27539 17.1609 4.27539 15.2441" stroke="#B5B5C4" stroke-width="1.5" stroke-miterlimit="10" stroke-linecap="round"/>
<path d="M18.2649 10.9062C19.223 10.9062 20 11.8774 20 13.0751C20 14.2729 19.223 15.244 18.2649 15.244H3.51637C2.55826 15.244 1.78125 14.2729 1.78125 13.0751C1.78125 11.8774 2.55826 10.9062 3.51637 10.9062" stroke="#B5B5C4" stroke-width="1.5" stroke-miterlimit="10" stroke-linecap="round"/>
<path d="M18.6987 10.9054H9.76876C9.65387 10.9055 9.54369 10.9511 9.46241 11.0323L8.00762 12.4871C7.98747 12.5072 7.96355 12.5232 7.93722 12.5342C7.91089 12.5451 7.88267 12.5507 7.85417 12.5507C7.82566 12.5507 7.79744 12.5451 7.77111 12.5342C7.74478 12.5232 7.72086 12.5072 7.70072 12.4871L6.24593 11.0323C6.16464 10.9511 6.05446 10.9055 5.93957 10.9054H3.08259C2.73745 10.9054 2.40645 10.7683 2.1624 10.5243C1.91836 10.2802 1.78125 9.94921 1.78125 9.60407V9.60407C1.78125 9.25894 1.91836 8.92794 2.1624 8.68389C2.40645 8.43984 2.73745 8.30273 3.08259 8.30273H18.6987C19.0438 8.30273 19.3748 8.43984 19.6188 8.68389C19.8629 8.92794 20 9.25894 20 9.60407C20 9.94921 19.8629 10.2802 19.6188 10.5243C19.3748 10.7683 19.0438 10.9054 18.6987 10.9054Z" stroke="#B5B5C4" stroke-width="1.5" stroke-miterlimit="10" stroke-linecap="round"/>
<path d="M3.5166 7.65234V7.64041C3.5166 4.65818 5.95661 3.09766 8.93885 3.09766H12.8429C15.8251 3.09766 18.2651 4.67011 18.2651 7.65234V7.64041" stroke="#B5B5C4" stroke-width="1.5" stroke-miterlimit="10" stroke-linecap="round"/>
</svg>
