<svg width="29" height="29" viewBox="0 0 29 29" fill="none" xmlns="http://www.w3.org/2000/svg">
<path d="M18.6467 8.52832H11.2891V20.4683H18.6467V8.52832Z" fill="#FF5F00"/>
<path d="M12.0469 14.4992C12.0459 13.3494 12.3083 12.2146 12.8139 11.1805C13.3196 10.1464 14.0554 9.24008 14.9657 8.53023C13.8383 7.64991 12.4844 7.10249 11.0587 6.95054C9.63299 6.79859 8.19302 7.04823 6.90336 7.67094C5.61371 8.29365 4.52639 9.2643 3.76568 10.4719C3.00497 11.6796 2.60156 13.0755 2.60156 14.5002C2.60156 15.9249 3.00497 17.3208 3.76568 18.5285C4.52639 19.7361 5.61371 20.7068 6.90336 21.3295C8.19302 21.9522 9.63299 22.2018 11.0587 22.0499C12.4844 21.8979 13.8383 21.3505 14.9657 20.4702C14.0552 19.7601 13.3192 18.8535 12.8135 17.819C12.3078 16.7845 12.0456 15.6492 12.0469 14.4992Z" fill="#EB001B"/>
<path d="M27.3301 14.4992C27.3301 15.924 26.9266 17.32 26.1657 18.5277C25.4049 19.7354 24.3174 20.706 23.0276 21.3287C21.7378 21.9513 20.2976 22.2008 18.8719 22.0486C17.4461 21.8964 16.0922 21.3487 14.9648 20.4681C15.8747 19.7577 16.6103 18.8511 17.1162 17.817C17.622 16.7828 17.8848 15.648 17.8848 14.4982C17.8848 13.3483 17.622 12.2135 17.1162 11.1794C16.6103 10.1452 15.8747 9.23866 14.9648 8.52818C16.0922 7.64759 17.4461 7.0999 18.8719 6.94773C20.2976 6.79556 21.7378 7.04504 23.0276 7.66766C24.3174 8.29028 25.4049 9.26091 26.1657 10.4686C26.9266 11.6763 27.3301 13.0723 27.3301 14.4971V14.4992Z" fill="#F79E1B"/>
</svg>
