<svg width="29" height="29" viewBox="0 0 29 29" fill="none" xmlns="http://www.w3.org/2000/svg">
<g clip-path="url(#clip0)">
<path d="M11.7833 19.1923H9.32227L10.8616 9.73926H13.3225L11.7833 19.1923Z" fill="#00579F"/>
<path d="M20.7048 9.97081C20.2193 9.77954 19.4494 9.56836 18.4974 9.56836C16.067 9.56836 14.3556 10.8555 14.3451 12.6958C14.3249 14.0535 15.5704 14.8076 16.502 15.2603C17.4541 15.7229 17.7778 16.0248 17.7778 16.4372C17.7681 17.0705 17.0084 17.3624 16.2998 17.3624C15.3173 17.3624 14.7908 17.2119 13.9907 16.8596L13.6667 16.7085L13.3223 18.8305C13.8995 19.0917 14.9629 19.3235 16.067 19.3336C18.6493 19.3336 20.3305 18.0664 20.3504 16.1053C20.3602 15.0292 19.7026 14.2047 18.2846 13.5309C17.4239 13.0983 16.8967 12.8067 16.8967 12.3641C16.9068 11.9618 17.3426 11.5497 18.3142 11.5497C19.1143 11.5296 19.7022 11.7206 20.1475 11.9117L20.3701 12.0121L20.7048 9.97081Z" fill="#00579F"/>
<path d="M23.9756 15.8434C24.1783 15.3004 24.9582 13.1985 24.9582 13.1985C24.948 13.2187 25.1605 12.6454 25.282 12.2935L25.454 13.108C25.454 13.108 25.92 15.3708 26.0213 15.8434C25.6366 15.8434 24.4617 15.8434 23.9756 15.8434ZM27.0135 9.73926H25.1099C24.5228 9.73926 24.0768 9.91008 23.8236 10.5236L20.168 19.1922H22.7503C22.7503 19.1922 23.1754 18.0254 23.2668 17.7742C23.5501 17.7742 26.0622 17.7742 26.4266 17.7742C26.4973 18.106 26.7203 19.1922 26.7203 19.1922H28.999L27.0135 9.73926Z" fill="#00579F"/>
<path d="M7.26755 9.73926L4.85736 16.1853L4.59399 14.878C4.14839 13.3695 2.75092 11.7305 1.19141 10.9156L3.39905 19.1823H6.00155L9.86991 9.73926H7.26755Z" fill="#00579F"/>
<path d="M2.61925 9.73926H-1.34035L-1.38086 9.93026C1.70788 10.7147 3.75349 12.6056 4.59394 14.8784L3.73317 10.5339C3.59146 9.93013 3.15596 9.75917 2.61925 9.73926Z" fill="#FAA61A"/>
</g>
<defs>
<clipPath id="clip0">
<rect width="29" height="29" fill="white"/>
</clipPath>
</defs>
</svg>
