<svg width="13" height="21" viewBox="0 0 13 21" fill="none" xmlns="http://www.w3.org/2000/svg">
<path d="M6.67392 20.0369C3.30893 20.0369 0.585938 17.5749 0.585938 14.5323L0.585938 4.0235C0.585938 1.81165 2.5673 0.0201435 5.01356 0.0201435C7.45982 0.0201435 9.44118 1.81165 9.44118 4.0235L9.44118 12.5306C9.44118 13.9118 8.20145 15.0327 6.67392 15.0327C5.14639 15.0327 3.90665 13.9118 3.90665 12.5306L3.90665 5.02434H6.12047V12.6207C6.12047 13.1712 7.22737 13.1712 7.22737 12.6207V4.0235C7.22737 2.92258 6.23116 2.02182 5.01356 2.02182C3.79596 2.02182 2.79975 2.92258 2.79975 4.0235L2.79975 14.5323C2.79975 16.4639 4.53759 18.0352 6.67392 18.0352C8.81025 18.0352 10.5481 16.4639 10.5481 14.5323L10.5481 5.02434H12.7619L12.7619 14.5323C12.7619 17.5749 10.0389 20.0369 6.67392 20.0369Z" fill="white"/>
</svg>
