<svg width="21" height="28" viewBox="0 0 21 28" fill="none" xmlns="http://www.w3.org/2000/svg">
<path d="M10.2083 17.5C12.6292 17.5 14.5688 15.5458 14.5688 13.125L14.5833 4.375C14.5833 1.95417 12.6292 0 10.2083 0C7.7875 0 5.83333 1.95417 5.83333 4.375V13.125C5.83333 15.5458 7.7875 17.5 10.2083 17.5ZM8.45833 4.22917C8.45833 3.26667 9.24583 2.47917 10.2083 2.47917C11.1708 2.47917 11.9583 3.26667 11.9583 4.22917L11.9437 13.2708C11.9437 14.2333 11.1708 15.0208 10.2083 15.0208C9.24583 15.0208 8.45833 14.2333 8.45833 13.2708V4.22917ZM17.9375 13.125C17.9375 17.5 14.2333 20.5625 10.2083 20.5625C6.18333 20.5625 2.47917 17.5 2.47917 13.125H0C0 18.0979 3.96667 22.2104 8.75 22.925V27.7083H11.6667V22.925C16.45 22.225 20.4167 18.1125 20.4167 13.125H17.9375Z" fill="#C4C4C4"/>
</svg>
