<svg width="15" height="15" viewBox="0 0 15 15" fill="none" xmlns="http://www.w3.org/2000/svg">
<path d="M2.54117 7.35602C2.54117 10.0138 4.69822 12.1709 7.35602 12.1709V11.2079C5.22786 11.2079 3.50414 9.48418 3.50414 7.35602H2.54117Z" fill="#C4C4C4"/>
<path fill-rule="evenodd" clip-rule="evenodd" d="M7.35602 0C3.2955 0 0 3.2955 0 7.35602C0 11.4165 3.2955 14.712 7.35602 14.712C9.18424 14.712 10.8574 14.044 12.1445 12.9388L14.2056 15L15 14.2056L12.9389 12.1444C14.044 10.8573 14.712 9.18423 14.712 7.35602C14.712 3.2955 11.4165 0 7.35602 0ZM1.4712 7.35602C1.4712 10.6074 4.10466 13.2408 7.35602 13.2408C10.6074 13.2408 13.2408 10.6074 13.2408 7.35602C13.2408 4.10466 10.6074 1.4712 7.35602 1.4712C4.10466 1.4712 1.4712 4.10466 1.4712 7.35602Z" fill="#C4C4C4"/>
</svg>
