<svg width="21" height="21" viewBox="0 0 21 21" fill="none" xmlns="http://www.w3.org/2000/svg">
<path d="M17.1896 13.8407C17.1745 13.8222 17.1554 13.8073 17.1338 13.797C17.1121 13.7868 17.0885 13.7814 17.0646 13.7814C17.0406 13.7814 17.017 13.7868 16.9953 13.797C16.9737 13.8073 16.9546 13.8222 16.9395 13.8407C16.5088 14.3493 15.0938 15.75 15.0938 17.026C15.0938 18.1334 15.9756 19.0313 17.0625 19.0313C18.1494 19.0313 19.0312 18.1289 19.0312 17.026C19.0312 15.75 17.6244 14.3493 17.1896 13.8407Z" stroke="white" stroke-width="1.5" stroke-miterlimit="10"/>
<path d="M15.8732 11.8084L6.38255 2.39367C6.24537 2.25602 6.08237 2.14679 5.90289 2.07227C5.72341 1.99774 5.53099 1.95938 5.33665 1.95938C5.14231 1.95938 4.94989 1.99774 4.77041 2.07227C4.59093 2.14679 4.42793 2.25602 4.29075 2.39367L4.07952 2.6049C3.94187 2.74208 3.83264 2.90508 3.75812 3.08456C3.68359 3.26404 3.64523 3.45646 3.64523 3.6508C3.64523 3.84514 3.68359 4.03756 3.75812 4.21704C3.83264 4.39652 3.94187 4.55952 4.07952 4.6967L6.24884 6.86601L8.58673 4.52812L2.31052 10.7953C2.20218 10.9031 2.11643 11.0313 2.0583 11.1726C2.00016 11.3139 1.97081 11.4654 1.97196 11.6182C1.9731 11.771 2.00472 11.922 2.06497 12.0624C2.12522 12.2028 2.21288 12.3298 2.32282 12.4359L7.70407 17.6039C7.91895 17.8096 8.20517 17.9241 8.50265 17.9234C8.80014 17.9226 9.08576 17.8066 9.29958 17.5998C10.85 16.0986 14.1517 12.9035 14.4963 12.559C14.7341 12.3211 15.2427 12.2678 15.6734 12.2678H15.6857C15.739 12.2678 15.791 12.252 15.8352 12.2223C15.8795 12.1926 15.9138 12.1504 15.9339 12.1011C15.9541 12.0518 15.959 11.9976 15.9482 11.9455C15.9374 11.8933 15.9112 11.8456 15.8732 11.8084V11.8084Z" stroke="white" stroke-width="1.5" stroke-miterlimit="10"/>
</svg>
