<svg width="22" height="21" viewBox="0 0 22 21" fill="none" xmlns="http://www.w3.org/2000/svg">
<g clip-path="url(#clip0)">
<path d="M14.6562 7.21875V5.57812C14.6562 5.143 14.4834 4.7257 14.1757 4.41803C13.868 4.11035 13.4507 3.9375 13.0156 3.9375H6.19061C5.75549 3.9375 5.33819 4.11035 5.03052 4.41803C4.72284 4.7257 4.54999 5.143 4.54999 5.57812V15.4219C4.54999 15.857 4.72284 16.2743 5.03052 16.582C5.33819 16.8896 5.75549 17.0625 6.19061 17.0625H13.0156C13.4507 17.0625 13.868 16.8896 14.1757 16.582C14.4834 16.2743 14.6562 15.857 14.6562 15.4219V13.7812" stroke="white" stroke-width="1.5" stroke-linecap="round" stroke-linejoin="round"/>
<path d="M17.2812 7.21875L20.5625 10.5L17.2812 13.7812" stroke="white" stroke-width="1.5" stroke-linecap="round" stroke-linejoin="round"/>
<path d="M9.36523 10.5H20.5625" stroke="white" stroke-width="1.5" stroke-linecap="round" stroke-linejoin="round"/>
</g>
<defs>
<clipPath id="clip0">
<rect width="21" height="21" fill="white" transform="translate(0.5)"/>
</clipPath>
</defs>
</svg>
