<svg width="32" height="32" viewBox="0 0 32 32" fill="none" xmlns="http://www.w3.org/2000/svg">
<path d="M31.4576 14.1017C31.2407 13.5051 30.861 13.0169 30.4271 12.5288C29.9932 12.0949 29.4508 11.7153 28.8542 11.4983C28.2576 11.2814 27.661 11.1186 27.0102 11.1186H20.6644V4.77288C20.6644 4.12203 20.5559 3.52542 20.2847 2.92881C20.0678 2.3322 19.6881 1.84407 19.2542 1.41017C18.8203 0.976271 18.278 0.59661 17.7356 0.379661C17.139 0.108475 16.5424 0 15.8915 0C15.2949 0 14.6441 0.108475 14.1017 0.379661C13.5051 0.59661 13.0169 0.976271 12.5831 1.41017C12.1492 1.84407 11.7695 2.38644 11.5525 2.98305C11.3356 3.57966 11.1729 4.17627 11.1729 4.82712V11.1729H4.77288C4.12203 11.1729 3.52542 11.2814 2.92881 11.5525C2.3322 11.7695 1.84407 12.1492 1.35593 12.5831C0.922034 13.0169 0.542373 13.5593 0.325424 14.1559C0.108475 14.6441 0 15.2949 0 15.8915C0 16.5424 0.108475 17.139 0.379661 17.7356C0.59661 18.3322 0.976271 18.8203 1.41017 19.2542C1.84407 19.6881 2.38644 20.0678 2.98305 20.2847C3.57966 20.5017 4.17627 20.6644 4.82712 20.6644H11.2271V27.0644C11.2271 28.3119 11.7153 29.5593 12.6373 30.4271C13.5593 31.2949 14.7525 31.8373 16 31.8373C16.6508 31.8373 17.2475 31.7288 17.8441 31.4576C18.4407 31.2407 18.9288 30.861 19.4169 30.4271C19.8508 29.9932 20.2305 29.4508 20.4475 28.8542C20.6644 28.2576 20.8271 27.661 20.8271 27.0102V20.6644H27.2271C28.4746 20.6644 29.722 20.1763 30.5898 19.2542C31.4576 18.3864 32 17.139 32 15.8915C31.8373 15.2949 31.6746 14.6441 31.4576 14.1017Z" fill="url(#paint0_linear)"/>
<defs>
<linearGradient id="paint0_linear" x1="7.05085" y1="4.61017" x2="32" y2="36.0678" gradientUnits="userSpaceOnUse">
<stop stop-color="#8E54E9"/>
<stop offset="1" stop-color="#4776E6"/>
</linearGradient>
</defs>
</svg>
