<svg width="21" height="21" viewBox="0 0 21 21" fill="none" xmlns="http://www.w3.org/2000/svg">
<path d="M14.328 2.84361C15.3424 2.84664 16.3144 3.25096 17.0317 3.96827C17.749 4.68558 18.1534 5.65759 18.1564 6.67201V14.328C18.1534 15.3424 17.749 16.3144 17.0317 17.0317C16.3144 17.749 15.3424 18.1534 14.328 18.1564H6.67201C5.65759 18.1534 4.68558 17.749 3.96827 17.0317C3.25096 16.3144 2.84664 15.3424 2.84361 14.328V6.67201C2.84664 5.65759 3.25096 4.68558 3.96827 3.96827C4.68558 3.25096 5.65759 2.84664 6.67201 2.84361H14.328ZM14.328 1.3125H6.67201C3.72422 1.3125 1.3125 3.72422 1.3125 6.67201V14.328C1.3125 17.2758 3.72422 19.6875 6.67201 19.6875H14.328C17.2758 19.6875 19.6875 17.2758 19.6875 14.328V6.67201C19.6875 3.72422 17.2758 1.3125 14.328 1.3125Z" fill="url(#paint0_linear)"/>
<path d="M15.4763 6.67187C15.2492 6.67187 15.0271 6.60452 14.8383 6.47833C14.6494 6.35213 14.5022 6.17277 14.4153 5.96292C14.3284 5.75307 14.3056 5.52216 14.3499 5.29939C14.3943 5.07661 14.5036 4.87198 14.6643 4.71137C14.8249 4.55076 15.0295 4.44138 15.2523 4.39707C15.475 4.35275 15.706 4.3755 15.9158 4.46242C16.1257 4.54934 16.305 4.69654 16.4312 4.8854C16.5574 5.07426 16.6248 5.2963 16.6248 5.52344C16.6251 5.67434 16.5956 5.82383 16.538 5.96331C16.4804 6.10279 16.3958 6.22952 16.2891 6.33623C16.1824 6.44293 16.0557 6.52751 15.9162 6.58511C15.7767 6.64271 15.6272 6.6722 15.4763 6.67187Z" fill="#A42AA5"/>
<path d="M10.5 7.43736C11.1057 7.43736 11.6979 7.61698 12.2015 7.95351C12.7052 8.29004 13.0977 8.76836 13.3295 9.32798C13.5613 9.8876 13.622 10.5034 13.5038 11.0975C13.3856 11.6916 13.0939 12.2373 12.6656 12.6656C12.2373 13.0939 11.6916 13.3856 11.0975 13.5038C10.5034 13.622 9.88761 13.5613 9.32798 13.3295C8.76836 13.0977 8.29004 12.7052 7.95351 12.2015C7.61699 11.6979 7.43737 11.1057 7.43737 10.5C7.43823 9.688 7.76118 8.90952 8.33535 8.33535C8.90952 7.76118 9.68801 7.43823 10.5 7.43736ZM10.5 5.90625C9.59144 5.90625 8.70329 6.17567 7.94785 6.68044C7.19241 7.1852 6.60362 7.90265 6.25593 8.74205C5.90824 9.58145 5.81727 10.5051 5.99452 11.3962C6.17177 12.2873 6.60928 13.1058 7.25173 13.7483C7.89418 14.3907 8.71271 14.8282 9.60381 15.0055C10.4949 15.1827 11.4186 15.0918 12.258 14.7441C13.0974 14.3964 13.8148 13.8076 14.3196 13.0522C14.8243 12.2967 15.0938 11.4086 15.0938 10.5C15.0938 9.28166 14.6098 8.11322 13.7483 7.25173C12.8868 6.39023 11.7183 5.90625 10.5 5.90625Z" fill="url(#paint1_linear)"/>
<defs>
<linearGradient id="paint0_linear" x1="2.99456" y1="18.0056" x2="18.0054" y2="2.99444" gradientUnits="userSpaceOnUse">
<stop stop-color="#FFC107"/>
<stop offset="0.507" stop-color="#F44336"/>
<stop offset="0.99" stop-color="#9C27B0"/>
</linearGradient>
<linearGradient id="paint1_linear" x1="6.74728" y1="14.2528" x2="14.2527" y2="6.74722" gradientUnits="userSpaceOnUse">
<stop stop-color="#FFC107"/>
<stop offset="0.507" stop-color="#F44336"/>
<stop offset="0.99" stop-color="#9C27B0"/>
</linearGradient>
</defs>
</svg>
