<svg width="21" height="21" viewBox="0 0 21 21" fill="none" xmlns="http://www.w3.org/2000/svg">
<g clip-path="url(#clip0)">
<path d="M13.7812 0.65625H7.21875C6.13144 0.65625 5.25 1.53769 5.25 2.625V18.375C5.25 19.4623 6.13144 20.3438 7.21875 20.3438H13.7812C14.8686 20.3438 15.75 19.4623 15.75 18.375V2.625C15.75 1.53769 14.8686 0.65625 13.7812 0.65625Z" stroke="#4776E6" stroke-width="1.5" stroke-linecap="round" stroke-linejoin="round"/>
<path d="M7.21875 0.65625H8.20312C8.29015 0.65625 8.37361 0.69082 8.43514 0.752356C8.49668 0.813891 8.53125 0.897351 8.53125 0.984375C8.53125 1.15842 8.60039 1.32534 8.72346 1.44841C8.84653 1.57148 9.01345 1.64062 9.1875 1.64062H11.8125C11.9865 1.64062 12.1535 1.57148 12.2765 1.44841C12.3996 1.32534 12.4688 1.15842 12.4688 0.984375C12.4688 0.897351 12.5033 0.813891 12.5649 0.752356C12.6264 0.69082 12.7099 0.65625 12.7969 0.65625H13.7812" stroke="#4776E6" stroke-width="1.5" stroke-linecap="round" stroke-linejoin="round"/>
</g>
<defs>
<clipPath id="clip0">
<rect width="21" height="21" fill="white"/>
</clipPath>
</defs>
</svg>
