<svg width="47" height="47" viewBox="0 0 47 47" fill="none" xmlns="http://www.w3.org/2000/svg">
<path d="M46.1831 20.7119C45.8646 19.8356 45.3073 19.1186 44.6702 18.4017C44.0332 17.7644 43.237 17.2068 42.3611 16.8881C41.4852 16.5695 40.6093 16.3305 39.6538 16.3305H30.3375V7.01017C30.3375 6.05424 30.1783 5.17797 29.7802 4.3017C29.4617 3.42542 28.9043 2.70847 28.2673 2.07119C27.6303 1.4339 26.834 0.876271 26.0377 0.557627C25.1618 0.159322 24.286 0 23.3304 0C22.4546 0 21.499 0.159322 20.7028 0.557627C19.8269 0.876271 19.1103 1.4339 18.4733 2.07119C17.8362 2.70847 17.2789 3.50508 16.9604 4.38136C16.6419 5.25763 16.403 6.1339 16.403 7.08983V16.4102H7.0071C6.05158 16.4102 5.1757 16.5695 4.29981 16.9678C3.42392 17.2864 2.70729 17.8441 1.99065 18.4814C1.35364 19.1186 0.796261 19.9153 0.477757 20.7915C0.159252 21.5085 0 22.4644 0 23.3407C0 24.2966 0.159252 25.1729 0.557383 26.0492C0.875887 26.9254 1.43327 27.6424 2.07028 28.2797C2.70729 28.917 3.50355 29.4746 4.37944 29.7932C5.25532 30.1119 6.13121 30.3508 7.08672 30.3508H16.4826V39.7509C16.4826 41.5831 17.1992 43.4153 18.5529 44.6898C19.9065 45.9644 21.6583 46.761 23.4897 46.761C24.4452 46.761 25.3211 46.6017 26.197 46.2034C27.0729 45.8848 27.7895 45.3271 28.5061 44.6898C29.1432 44.0525 29.7005 43.2559 30.019 42.3797C30.3375 41.5034 30.5764 40.6271 30.5764 39.6712V30.3508H39.9723C41.8037 30.3508 43.6351 29.6339 44.9091 28.2797C46.1831 27.0051 46.9794 25.1729 46.9794 23.3407C46.7405 22.4644 46.5016 21.5085 46.1831 20.7119Z" fill="url(#paint0_linear)"/>
<defs>
<linearGradient id="paint0_linear" x1="10.3514" y1="6.77119" x2="46.9991" y2="52.9589" gradientUnits="userSpaceOnUse">
<stop stop-color="#8E54E9"/>
<stop offset="1" stop-color="#4776E6"/>
</linearGradient>
</defs>
</svg>
