<svg width="113" height="47" viewBox="0 0 113 47" fill="none" xmlns="http://www.w3.org/2000/svg">
<path d="M55.478 15.894C55.4691 15.3068 55.651 14.7325 55.9965 14.2577C56.3419 13.7829 56.8322 13.4331 57.3935 13.261C57.6468 13.2297 57.9031 13.2297 58.1565 13.261H65.1644C66.9685 13.1838 68.7373 13.778 70.1293 14.9289C71.5212 16.0798 72.4377 17.7058 72.7017 19.493C72.9549 20.6538 72.9752 21.8534 72.7613 23.0222C72.5474 24.1909 72.1037 25.3055 71.4559 26.3013C70.8739 27.1727 70.0961 27.8956 69.1848 28.4123C68.2735 28.929 67.254 29.2252 66.2078 29.2771C64.6505 29.4173 63.3579 29.3706 60.8662 29.3706V34.2626C60.8933 34.6786 60.8308 35.0955 60.6831 35.4852C60.5353 35.8749 60.3057 36.2284 60.0097 36.5217C59.6499 36.8273 59.218 37.036 58.7549 37.1278C58.2919 37.2197 57.8131 37.1917 57.3639 37.0466C56.9148 36.9015 56.51 36.644 56.1882 36.2986C55.8663 35.9532 55.6379 35.5313 55.5247 35.0728C55.5247 34.9637 55.5247 34.1692 55.5247 33.2967L55.478 15.894ZM60.8818 24.4162C62.0342 24.4162 63.1243 24.4162 64.23 24.4162C64.977 24.391 65.69 24.0979 66.2389 23.5905C66.6747 23.2128 66.9972 22.7216 67.1704 22.1714C67.3436 21.6213 67.3608 21.0338 67.22 20.4745C67.134 19.9048 66.8737 19.3758 66.4749 18.9601C66.0762 18.5444 65.5585 18.2625 64.9931 18.1531C64.6532 18.0597 64.3022 18.0125 63.9497 18.0129H60.8351L60.8818 24.4162Z" fill="#4776E6"/>
<path d="M89.6293 37.3929C88.9219 37.3811 88.2175 37.2975 87.5269 37.1437C86.5881 37.0048 85.6883 36.6729 84.8842 36.1688C84.0801 35.6647 83.3892 34.9993 82.855 34.2147C82.2149 33.2611 81.8734 32.1383 81.8739 30.9896C81.8739 27.8737 81.8739 24.7577 81.8739 21.6417C81.8569 21.2945 81.911 20.9475 82.0327 20.6219C82.1544 20.2964 82.3412 19.999 82.5818 19.7482C82.8223 19.4973 83.1115 19.2982 83.4316 19.1631C83.7517 19.0279 84.096 18.9594 84.4434 18.962C84.7884 18.9699 85.1283 19.0468 85.443 19.1882C85.7578 19.3296 86.0411 19.5326 86.2762 19.7852C86.5113 20.0379 86.6935 20.3351 86.812 20.6592C86.9305 20.9834 86.983 21.3281 86.9663 21.6729C86.9663 24.337 86.9663 26.9856 86.9663 29.6342C86.9735 30.1731 87.0956 30.7043 87.3244 31.1922C87.6113 31.7101 88.0562 32.1226 88.5942 32.3693C89.1323 32.616 89.7351 32.6839 90.3145 32.5632C90.8473 32.4956 91.3476 32.2693 91.7502 31.9137C92.1529 31.5581 92.4394 31.0896 92.5726 30.569C92.6558 30.2117 92.6924 29.8451 92.6816 29.4784C92.6816 26.9129 92.6816 24.3422 92.6816 21.7664C92.6483 21.2596 92.7631 20.7541 93.0119 20.3115C93.2608 19.8689 93.633 19.5083 94.0831 19.2736C94.4438 19.0859 94.8438 18.9866 95.2504 18.9837C95.6569 18.9808 96.0583 19.0745 96.4216 19.257C96.7849 19.4395 97.0997 19.7056 97.3403 20.0335C97.5808 20.3614 97.7401 20.7417 97.8051 21.1432C97.8205 21.3714 97.8205 21.6004 97.8051 21.8287V30.3976C97.8616 31.9444 97.3708 33.4616 96.4191 34.682C95.3039 36.0104 93.7422 36.8858 92.0275 37.1437C91.3568 37.2908 90.6738 37.3743 89.9874 37.3929H89.6293Z" fill="#4776E6"/>
<path d="M106.106 37.3937C105.393 37.3837 104.683 37.3001 103.988 37.1445C102.51 36.979 101.125 36.3458 100.032 35.3372C99.6091 34.947 99.3449 34.4144 99.2901 33.8413C99.2354 33.2683 99.394 32.6951 99.7355 32.2318C100.077 31.7686 100.577 31.4477 101.141 31.3307C101.704 31.2137 102.291 31.3089 102.789 31.598C103.692 31.9564 104.58 32.3615 105.514 32.6575C106.017 32.8147 106.549 32.8573 107.071 32.7821C107.301 32.763 107.517 32.6661 107.684 32.5074C107.851 32.3488 107.959 32.1379 107.99 31.9096C108.03 31.6816 107.991 31.4467 107.881 31.2432C107.771 31.0396 107.595 30.8792 107.383 30.7879C106.682 30.4607 105.95 30.1803 105.234 29.8843C104.517 29.5882 103.318 29.1209 102.399 28.6535C101.831 28.3754 101.326 27.9849 100.913 27.5057C100.501 27.0265 100.19 26.4684 99.9989 25.8654C99.8081 25.2624 99.7417 24.6269 99.8037 23.9974C99.8656 23.368 100.055 22.7576 100.359 22.2034C100.809 21.246 101.501 20.4231 102.367 19.8163C103.233 19.2095 104.243 18.8401 105.296 18.7447C107.036 18.4778 108.816 18.761 110.388 19.5548C110.878 19.749 111.316 20.0562 111.665 20.4514C112.014 20.8467 112.265 21.3189 112.397 21.8295C112.496 22.2097 112.488 22.6096 112.376 22.9859C112.263 23.3622 112.05 23.7004 111.759 23.9639C111.461 24.2413 111.088 24.4248 110.686 24.4913C110.284 24.5578 109.872 24.5044 109.501 24.3378C108.613 23.9951 107.741 23.6056 106.822 23.3407C106.387 23.1991 105.918 23.1991 105.483 23.3407C105.292 23.401 105.123 23.5184 105.001 23.6772C104.878 23.8359 104.807 24.0284 104.798 24.2288C104.762 24.4147 104.786 24.6071 104.867 24.7781C104.949 24.9491 105.082 25.0896 105.249 25.1792C105.75 25.4333 106.271 25.6469 106.806 25.8179C108.092 26.2535 109.338 26.8009 110.528 27.4538C111.125 27.8038 111.643 28.274 112.049 28.8346C112.455 29.3952 112.74 30.0341 112.887 30.7107C113.033 31.3873 113.038 32.0869 112.9 32.7653C112.762 33.4437 112.485 34.086 112.086 34.6517C111.53 35.4622 110.796 36.1347 109.94 36.6181C109.085 37.1014 108.13 37.3827 107.149 37.4405L106.106 37.3937Z" fill="#4776E6"/>
<path d="M74.3367 14.1484C74.3045 13.6644 74.4049 13.1808 74.6272 12.7498C74.8495 12.3187 75.1852 11.9566 75.5981 11.7024C75.9947 11.4618 76.4487 11.3325 76.9125 11.3279C77.3763 11.3233 77.8328 11.4436 78.2341 11.6762C78.6354 11.9088 78.9668 12.2452 79.1935 12.65C79.4202 13.0548 79.5338 13.5131 79.5225 13.977V34.2308C79.56 34.7522 79.4426 35.2729 79.1848 35.7276C78.9271 36.1823 78.5407 36.5505 78.0742 36.7859C77.6976 36.9717 77.2816 37.0634 76.8618 37.0534C76.442 37.0433 76.0309 36.9317 75.6636 36.728C75.2963 36.5244 74.9838 36.2348 74.7527 35.8841C74.5217 35.5333 74.3789 35.1318 74.3367 34.7138C74.3367 32.9533 74.3523 17.4825 74.3367 14.1484Z" fill="#4776E6"/>
<g clip-path="url(#clip0)">
<path d="M46.1831 20.7119C45.8646 19.8356 45.3073 19.1186 44.6702 18.4017C44.0332 17.7644 43.237 17.2068 42.3611 16.8881C41.4852 16.5695 40.6093 16.3305 39.6538 16.3305H30.3375V7.01017C30.3375 6.05424 30.1783 5.17797 29.7802 4.3017C29.4617 3.42542 28.9043 2.70847 28.2673 2.07119C27.6303 1.4339 26.834 0.876271 26.0377 0.557627C25.1618 0.159322 24.286 0 23.3304 0C22.4546 0 21.499 0.159322 20.7028 0.557627C19.8269 0.876271 19.1103 1.4339 18.4733 2.07119C17.8362 2.70847 17.2789 3.50508 16.9604 4.38136C16.6419 5.25763 16.403 6.1339 16.403 7.08983V16.4102H7.0071C6.05158 16.4102 5.1757 16.5695 4.29981 16.9678C3.42392 17.2864 2.70729 17.8441 1.99065 18.4814C1.35364 19.1186 0.796261 19.9153 0.477757 20.7915C0.159252 21.5085 0 22.4644 0 23.3407C0 24.2966 0.159252 25.1729 0.557383 26.0492C0.875887 26.9254 1.43327 27.6424 2.07028 28.2797C2.70729 28.917 3.50355 29.4746 4.37944 29.7932C5.25532 30.1119 6.13121 30.3508 7.08672 30.3508H16.4826V39.7509C16.4826 41.5831 17.1992 43.4153 18.5529 44.6898C19.9065 45.9644 21.6583 46.761 23.4897 46.761C24.4452 46.761 25.3211 46.6017 26.197 46.2034C27.0729 45.8848 27.7895 45.3271 28.5061 44.6898C29.1432 44.0525 29.7005 43.2559 30.019 42.3797C30.3375 41.5034 30.5764 40.6271 30.5764 39.6712V30.3508H39.9723C41.8037 30.3508 43.6351 29.6339 44.9091 28.2797C46.1831 27.0051 46.9794 25.1729 46.9794 23.3407C46.7405 22.4644 46.5016 21.5085 46.1831 20.7119Z" fill="url(#paint0_linear)"/>
</g>
<defs>
<linearGradient id="paint0_linear" x1="10.3514" y1="6.77119" x2="46.9991" y2="52.9589" gradientUnits="userSpaceOnUse">
<stop stop-color="#8E54E9"/>
<stop offset="1" stop-color="#4776E6"/>
</linearGradient>
<clipPath id="clip0">
<rect width="46.9794" height="47" fill="white"/>
</clipPath>
</defs>
</svg>
