<svg width="21" height="13" viewBox="0 0 21 13" fill="none" xmlns="http://www.w3.org/2000/svg">
<path fill-rule="evenodd" clip-rule="evenodd" d="M19.8803 1.46387C20.0263 1.00121 19.8803 0.664883 19.2343 0.664883H17.0863C16.5445 0.664883 16.2943 0.959375 16.1483 1.27437C16.1483 1.27437 15.0433 3.965 13.5003 5.70939C12.9999 6.21389 12.7706 6.38205 12.4995 6.38205C12.3535 6.38205 12.1656 6.21389 12.1656 5.75164V1.44213C12.1656 0.895801 11.9991 0.643555 11.5402 0.643555H8.16211C7.82824 0.643555 7.61988 0.895801 7.61988 1.14805C7.61988 1.67346 8.39139 1.79979 8.47465 3.27102V6.46777C8.47465 7.16135 8.3516 7.28809 8.07844 7.28809C7.34877 7.28809 5.57648 4.57654 4.51336 1.48684C4.30664 0.874883 4.09664 0.643555 3.55441 0.643555H1.38592C0.76043 0.643555 0.65625 0.937637 0.65625 1.25305C0.65625 1.8207 1.38592 4.67908 4.0548 8.46236C5.82709 11.0463 8.34996 12.4351 10.6226 12.4351C11.9991 12.4351 12.1656 12.1197 12.1656 11.5943V9.63951C12.1656 9.0091 12.2907 8.9041 12.7288 8.9041C13.0413 8.9041 13.6045 9.07186 14.8764 10.3122C16.3357 11.7834 16.5859 12.4561 17.3992 12.4561H19.5468C20.1723 12.4561 20.4643 12.1406 20.2974 11.5312C20.11 10.9217 19.4008 10.039 18.4833 8.98818C17.9829 8.40002 17.2323 7.74828 17.003 7.43287C16.6905 7.01246 16.7738 6.8443 17.003 6.46613C16.9821 6.46613 19.6096 2.72469 19.8803 1.46223" fill="#3275B7"/>
</svg>
