<svg width="21" height="15" viewBox="0 0 21 15" fill="none" xmlns="http://www.w3.org/2000/svg">
<path d="M20.1249 5.4963C20.1682 4.24387 19.8943 3.00081 19.3287 1.88255C18.9449 1.4237 18.4123 1.11404 17.8237 1.00755C15.389 0.786632 12.9442 0.696086 10.4999 0.736297C8.06447 0.694261 5.62852 0.781885 3.2024 0.998797C2.72274 1.08605 2.27885 1.31103 1.9249 1.6463C1.1374 2.37255 1.0499 3.61505 0.962401 4.66505C0.83545 6.55292 0.83545 8.44718 0.962401 10.335C0.987715 10.926 1.07571 11.5126 1.2249 12.085C1.3304 12.527 1.54386 12.9359 1.84615 13.275C2.20251 13.6281 2.65674 13.8659 3.1499 13.9575C5.03633 14.1904 6.93709 14.2869 8.8374 14.2463C11.8999 14.29 14.5862 14.2463 17.7624 14.0013C18.2677 13.9152 18.7347 13.6771 19.1012 13.3188C19.3461 13.0737 19.5291 12.7738 19.6349 12.4438C19.9478 11.4836 20.1015 10.4786 20.0899 9.4688C20.1249 8.9788 20.1249 6.0213 20.1249 5.4963ZM8.5224 9.9938V4.57755L13.7024 7.2988C12.2499 8.1038 10.3337 9.0138 8.5224 9.9938Z" fill="#FF071B"/>
</svg>
