<svg width="77" height="32" viewBox="0 0 77 32" fill="none" xmlns="http://www.w3.org/2000/svg">
<path d="M37.7888 10.8215C37.7827 10.4217 37.9067 10.0307 38.142 9.70739C38.3773 9.38409 38.7112 9.14595 39.0935 9.0288C39.2661 9.00749 39.4407 9.00749 39.6133 9.0288H44.3867C45.6156 8.97624 46.8204 9.3808 47.7685 10.1644C48.7167 10.948 49.3409 12.055 49.5207 13.2718C49.6932 14.0622 49.707 14.8789 49.5613 15.6747C49.4157 16.4704 49.1134 17.2293 48.6721 17.9073C48.2757 18.5005 47.7459 18.9928 47.1252 19.3446C46.5045 19.6964 45.81 19.898 45.0974 19.9334C44.0366 20.0288 43.1562 19.997 41.459 19.997V23.3278C41.4774 23.611 41.4349 23.8948 41.3342 24.1602C41.2336 24.4255 41.0772 24.6662 40.8756 24.8659C40.6305 25.074 40.3363 25.216 40.0209 25.2785C39.7055 25.3411 39.3794 25.3221 39.0734 25.2232C38.7674 25.1244 38.4918 24.9491 38.2725 24.714C38.0533 24.4788 37.8977 24.1915 37.8206 23.8794C37.8206 23.8051 37.8206 23.2641 37.8206 22.6701L37.7888 10.8215ZM41.4696 16.6238C42.2546 16.6238 42.9971 16.6238 43.7502 16.6238C44.259 16.6067 44.7447 16.4071 45.1186 16.0616C45.4154 15.8045 45.6351 15.47 45.7531 15.0954C45.871 14.7209 45.8828 14.3209 45.7869 13.9401C45.7283 13.5522 45.551 13.192 45.2794 12.909C45.0077 12.626 44.6551 12.4341 44.27 12.3596C44.0385 12.296 43.7994 12.2639 43.5593 12.2641H41.4378L41.4696 16.6238Z" fill="#4776E6"/>
<path d="M61.0509 25.4591C60.5691 25.451 60.0893 25.3941 59.6189 25.2893C58.9795 25.1948 58.3666 24.9688 57.8189 24.6256C57.2712 24.2824 56.8005 23.8293 56.4366 23.2951C56.0007 22.6459 55.768 21.8814 55.7684 21.0994C55.7684 18.9778 55.7684 16.8563 55.7684 14.7348C55.7568 14.4984 55.7936 14.2622 55.8765 14.0405C55.9594 13.8188 56.0867 13.6164 56.2505 13.4456C56.4144 13.2748 56.6113 13.1393 56.8294 13.0472C57.0474 12.9552 57.282 12.9086 57.5186 12.9103C57.7536 12.9157 57.9851 12.9681 58.1995 13.0643C58.4139 13.1606 58.6069 13.2988 58.767 13.4708C58.9272 13.6429 59.0513 13.8452 59.132 14.0659C59.2127 14.2866 59.2484 14.5213 59.237 14.756C59.237 16.5699 59.237 18.3732 59.237 20.1765C59.2419 20.5434 59.3251 20.9051 59.481 21.2373C59.6764 21.5899 59.9795 21.8707 60.3459 22.0387C60.7124 22.2067 61.123 22.2529 61.5177 22.1707C61.8806 22.1247 62.2214 21.9706 62.4956 21.7285C62.7699 21.4864 62.9651 21.1674 63.0558 20.813C63.1124 20.5697 63.1374 20.3201 63.13 20.0704C63.13 18.3237 63.13 16.5735 63.13 14.8197C63.1073 14.4747 63.1855 14.1305 63.355 13.8292C63.5246 13.5278 63.7781 13.2823 64.0847 13.1225C64.3304 12.9947 64.6028 12.9271 64.8798 12.9251C65.1567 12.9231 65.4301 12.9869 65.6775 13.1112C65.925 13.2354 66.1395 13.4166 66.3033 13.6399C66.4671 13.8631 66.5756 14.122 66.6199 14.3954C66.6304 14.5508 66.6304 14.7067 66.6199 14.8621V20.6963C66.6584 21.7494 66.3241 22.7824 65.6758 23.6133C64.9162 24.5178 63.8525 25.1137 62.6845 25.2893C62.2277 25.3896 61.7624 25.4464 61.2949 25.4591H61.0509Z" fill="#4776E6"/>
<path d="M72.2738 25.4596C71.7884 25.4527 71.305 25.3958 70.8312 25.2898C69.8249 25.1772 68.881 24.7461 68.1369 24.0594C67.8487 23.7937 67.6687 23.431 67.6314 23.0409C67.5941 22.6507 67.7022 22.2605 67.9348 21.9451C68.1674 21.6296 68.5083 21.4112 68.8921 21.3315C69.2758 21.2519 69.6755 21.3167 70.0144 21.5136C70.6297 21.7575 71.2343 22.0333 71.8707 22.2349C72.2136 22.3419 72.576 22.3709 72.9315 22.3197C73.0878 22.3067 73.235 22.2407 73.3488 22.1327C73.4626 22.0247 73.5362 21.8811 73.5573 21.7257C73.5844 21.5704 73.5583 21.4105 73.4833 21.2719C73.4082 21.1333 73.2885 21.0241 73.1436 20.962C72.6663 20.7392 72.1677 20.5483 71.6798 20.3467C71.1919 20.1452 70.3751 19.827 69.7492 19.5087C69.3624 19.3194 69.0181 19.0536 68.737 18.7273C68.456 18.401 68.2441 18.0211 68.1142 17.6105C67.9843 17.1999 67.939 16.7672 67.9812 16.3387C68.0234 15.9101 68.1522 15.4946 68.3596 15.1172C68.6659 14.4654 69.1374 13.905 69.7273 13.4919C70.3172 13.0788 71.005 12.8273 71.7222 12.7623C72.9077 12.5806 74.1203 12.7734 75.1909 13.3139C75.5248 13.4461 75.8228 13.6553 76.0606 13.9244C76.2984 14.1935 76.4692 14.515 76.5593 14.8626C76.6264 15.1215 76.6214 15.3938 76.5447 15.65C76.4681 15.9062 76.3227 16.1365 76.1244 16.3159C75.9214 16.5047 75.6672 16.6296 75.3937 16.6749C75.1201 16.7202 74.8393 16.6838 74.5863 16.5704C73.9816 16.3371 73.3876 16.0719 72.7618 15.8916C72.4653 15.7951 72.146 15.7951 71.8495 15.8916C71.7193 15.9326 71.6047 16.0125 71.5213 16.1206C71.4378 16.2287 71.3895 16.3598 71.3828 16.4962C71.3584 16.6227 71.3751 16.7538 71.4304 16.8702C71.4858 16.9866 71.5769 17.0823 71.6904 17.1432C72.0318 17.3163 72.3865 17.4617 72.7512 17.5782C73.6271 17.8747 74.4754 18.2474 75.2864 18.6919C75.693 18.9302 76.0458 19.2504 76.3223 19.6321C76.5988 20.0138 76.7931 20.4487 76.8928 20.9094C76.9925 21.37 76.9955 21.8464 76.9016 22.3083C76.8076 22.7702 76.6188 23.2075 76.3471 23.5926C75.9684 24.1444 75.4685 24.6024 74.8857 24.9314C74.3029 25.2605 73.6527 25.4521 72.9845 25.4914L72.2738 25.4596Z" fill="#4776E6"/>
<path d="M50.6344 9.63296C50.6124 9.30345 50.6809 8.9742 50.8323 8.68071C50.9837 8.38723 51.2123 8.14065 51.4936 7.96757C51.7638 7.80381 52.073 7.71574 52.3889 7.71261C52.7048 7.70948 53.0157 7.79139 53.2891 7.94977C53.5625 8.10814 53.7882 8.33714 53.9426 8.61275C54.097 8.88837 54.1744 9.20045 54.1667 9.51627V23.3061C54.1923 23.661 54.1122 24.0156 53.9367 24.3252C53.7612 24.6348 53.4979 24.8855 53.1802 25.0457C52.9237 25.1722 52.6403 25.2347 52.3544 25.2278C52.0684 25.221 51.7884 25.145 51.5382 25.0063C51.288 24.8677 51.0752 24.6705 50.9178 24.4317C50.7604 24.1929 50.6631 23.9195 50.6344 23.6349C50.6344 22.4363 50.645 11.903 50.6344 9.63296Z" fill="#4776E6"/>
<path d="M31.4576 14.1017C31.2407 13.5051 30.861 13.0169 30.4271 12.5288C29.9932 12.0949 29.4508 11.7153 28.8542 11.4983C28.2576 11.2814 27.661 11.1186 27.0102 11.1186H20.6644V4.77288C20.6644 4.12203 20.5559 3.52542 20.2847 2.92881C20.0678 2.3322 19.6881 1.84407 19.2542 1.41017C18.8203 0.976271 18.278 0.59661 17.7356 0.379661C17.139 0.108475 16.5424 0 15.8915 0C15.2949 0 14.6441 0.108475 14.1017 0.379661C13.5051 0.59661 13.0169 0.976271 12.5831 1.41017C12.1492 1.84407 11.7695 2.38644 11.5525 2.98305C11.3356 3.57966 11.1729 4.17627 11.1729 4.82712V11.1729H4.77288C4.12203 11.1729 3.52542 11.2814 2.92881 11.5525C2.3322 11.7695 1.84407 12.1492 1.35593 12.5831C0.922034 13.0169 0.542373 13.5593 0.325424 14.1559C0.108475 14.6441 0 15.2949 0 15.8915C0 16.5424 0.108475 17.139 0.379661 17.7356C0.59661 18.3322 0.976271 18.8203 1.41017 19.2542C1.84407 19.6881 2.38644 20.0678 2.98305 20.2847C3.57966 20.5017 4.17627 20.6644 4.82712 20.6644H11.2271V27.0644C11.2271 28.3119 11.7153 29.5593 12.6373 30.4271C13.5593 31.2949 14.7525 31.8373 16 31.8373C16.6508 31.8373 17.2475 31.7288 17.8441 31.4576C18.4407 31.2407 18.9288 30.861 19.4169 30.4271C19.8508 29.9932 20.2305 29.4508 20.4475 28.8542C20.6644 28.2576 20.8271 27.661 20.8271 27.0102V20.6644H27.2271C28.4746 20.6644 29.722 20.1763 30.5898 19.2542C31.4576 18.3864 32 17.139 32 15.8915C31.8373 15.2949 31.6746 14.6441 31.4576 14.1017Z" fill="url(#paint0_linear)"/>
<defs>
<linearGradient id="paint0_linear" x1="7.05085" y1="4.61017" x2="32" y2="36.0678" gradientUnits="userSpaceOnUse">
<stop stop-color="#8E54E9"/>
<stop offset="1" stop-color="#4776E6"/>
</linearGradient>
</defs>
</svg>
